# xmcd
#
# Track frame offsets:
#	150
#	22893
#	62753
#	79987
#	96623
#	105136
#	127242
#	154111
#	177761
#	194859
#	213203
#	231261
#	260432
#
# Disc length: 3677 seconds
#
# Revision: 0
# Processed by: cddbd v1.5.2PL0 Copyright (c) Steve Scherf et al.
# Submitted via: EasyCDDAExtractor 16.0.6.1
#
DISCID=b40e5b0d
DTITLE=Blue Family - Here Comes The Blues
DYEAR=2002
DGENRE=Blues
TTITLE0=Help Me
TTITLE1=Buzz Me
TTITLE2=Murder In The 1 Degree
TTITLE3=Rock This House
TTITLE4=Mellow Down Easy
TTITLE5=Shake Rattle and Roll
TTITLE6=Black, Brown and White
TTITLE7=Good Morning Little School Girl
TTITLE8=Sinister Woman
TTITLE9=Have You Ever Loved A Woman
TTITLE10=Love and Money
TTITLE11=Caldonia
TTITLE12=Jumpin' All Night Long
EXTD=
EXTT0=
EXTT1=
EXTT2=
EXTT3=
EXTT4=
EXTT5=
EXTT6=
EXTT7=
EXTT8=
EXTT9=
EXTT10=
EXTT11=
EXTT12=
PLAYORDER=
